<?xml version="1.0" encoding="utf-8"?>
<!-- Generator: Adobe Illustrator 26.5.0, SVG Export Plug-In . SVG Version: 6.00 Build 0)  -->
<svg version="1.1" id="Layer_1" xmlns="http://www.w3.org/2000/svg" xmlns:xlink="http://www.w3.org/1999/xlink" x="0px" y="0px"
	 viewBox="0 0 24 24" style="enable-background:new 0 0 24 24;" xml:space="preserve">
<style type="text/css">
	.st0{fill:#18B58F;}
</style>
<path class="st0" d="M5,22.1c0.8,0,1.6-0.3,2.2-0.9l4.2-4.2l-1.5-1.5l0.9-0.9c3.1,2.3,7.5,1.7,9.8-1.4s1.7-7.5-1.4-9.8
	s-7.5-1.7-9.8,1.4c-1.9,2.5-1.9,5.9,0,8.4l-0.9,0.9L7,12.6l-4.2,4.2c-1.2,1.2-1.2,3.2,0,4.4C3.4,21.8,4.2,22.1,5,22.1z M15,4
	c2.8,0,5,2.2,5,5s-2.2,5-5,5s-5-2.2-5-5S12.2,4,15,4z M4.2,18.2L7,15.4L8.6,17l-2.8,2.8c-0.4,0.4-1.1,0.4-1.6,0
	C3.8,19.4,3.8,18.6,4.2,18.2C4.2,18.2,4.2,18.2,4.2,18.2L4.2,18.2z"/>
<rect x="12" y="6" class="st0" width="2" height="2"/>
<rect x="16" y="6" class="st0" width="2" height="2"/>
<path class="st0" d="M17.3,11.9l1.4-1.4c-2-2-5.4-2-7.4,0l1.4,1.4C14,10.7,16,10.7,17.3,11.9z"/>
</svg>
