<?xml version="1.0" encoding="utf-8"?>
<!-- Generator: Adobe Illustrator 26.5.0, SVG Export Plug-In . SVG Version: 6.00 Build 0)  -->
<svg version="1.1" id="Layer_1" xmlns="http://www.w3.org/2000/svg" xmlns:xlink="http://www.w3.org/1999/xlink" x="0px" y="0px"
	 viewBox="0 0 14 16" style="enable-background:new 0 0 14 16;" xml:space="preserve">
<style type="text/css">
	.st0{fill:#DD1919;}
</style>
<g>
	<path id="a" class="st0" d="M0,2.6V1.8C0,1.3,0.3,1,0.8,1h3.5l0.3-0.6C4.7,0.2,4.9,0,5.2,0h3.6c0.3,0,0.5,0.2,0.7,0.4L9.8,1h3.5
		C13.7,1,14,1.3,14,1.8v0.9C14,2.8,13.8,3,13.6,3H0.4C0.2,3,0,2.8,0,2.6z M13,4.4v10.1c0,0.8-0.7,1.5-1.5,1.5l0,0h-9
		C1.7,16,1,15.3,1,14.5l0,0V4.4C1,4.2,1.2,4,1.4,4h11.2C12.8,4,13,4.2,13,4.4z M4.5,6.5C4.5,6.2,4.3,6,4,6S3.5,6.2,3.5,6.5v7
		C3.5,13.8,3.7,14,4,14s0.5-0.2,0.5-0.5V6.5z M7.5,6.5C7.5,6.2,7.3,6,7,6S6.5,6.2,6.5,6.5v7C6.5,13.8,6.7,14,7,14s0.5-0.2,0.5-0.5
		V6.5z M10.5,6.5C10.5,6.2,10.3,6,10,6S9.5,6.2,9.5,6.5v7c0,0.3,0.2,0.5,0.5,0.5s0.5-0.2,0.5-0.5V6.5z"/>
</g>
</svg>
