<?xml version="1.0" encoding="utf-8"?>
<!-- Generator: Adobe Illustrator 26.5.0, SVG Export Plug-In . SVG Version: 6.00 Build 0)  -->
<svg version="1.1" id="Layer_1" xmlns="http://www.w3.org/2000/svg" xmlns:xlink="http://www.w3.org/1999/xlink" x="0px" y="0px"
	 viewBox="0 0 138 20" style="enable-background:new 0 0 138 20;" xml:space="preserve">
<g>
	<path d="M0.8,0.6h13.4c2.1,0,3.5,0.4,4.4,1.2c0.9,0.8,1.3,1.8,1.3,3.1v0.4c0,0.6-0.1,1.1-0.3,1.6c-0.2,0.5-0.4,0.8-0.7,1.1
		c-0.3,0.3-0.6,0.5-0.8,0.6c-0.2,0.2-0.5,0.3-0.7,0.4c0.3,0.1,0.7,0.2,1,0.4c0.3,0.2,0.7,0.5,1.1,0.8c0.4,0.3,0.7,0.8,0.9,1.4
		c0.2,0.6,0.4,1.3,0.4,2.1V14c0,3.6-2.2,5.4-6.5,5.4H0.8V0.6z M5.7,7.6h7.7c1.1,0,1.7-0.5,1.7-1.5V4.8c0-1-0.6-1.5-1.7-1.5H5.7V7.6z
		 M5.7,11.6v3.7h8.1c0.7,0,1.2-0.2,1.5-0.6c0.3-0.4,0.4-0.8,0.4-1.3v-0.1c0-1.2-0.6-1.8-1.9-1.8H5.7z"/>
	<path d="M33.5,14.8V13c-0.2,0.2-0.4,0.3-0.5,0.4c-0.1,0.1-0.3,0.2-0.7,0.5c-0.4,0.3-0.8,0.4-1.1,0.6c-0.3,0.1-0.8,0.2-1.4,0.4
		C29.2,15,28.6,15,28,15h-0.2c-1.8,0-3.1-0.4-4-1.2c-0.9-0.8-1.3-1.8-1.3-2.9V4.5h4.7v5.1c0,0.8,0.2,1.4,0.7,1.9
		c0.5,0.5,1.2,0.7,2.2,0.7c1,0,1.8-0.3,2.4-0.8c0.6-0.5,0.9-1.2,0.9-2V4.5h4.7v12.7L33.5,14.8z"/>
	<path d="M57.3,4.1v9.2c0,0.5-0.1,1-0.2,1.4c-0.1,0.5-0.3,1-0.7,1.6c-0.3,0.6-0.8,1.1-1.3,1.6c-0.5,0.4-1.3,0.8-2.3,1.1
		c-1,0.3-2.2,0.5-3.5,0.5h-9.9v-3.1h9.7c2.3-0.1,3.5-1.2,3.5-3.2c-1.3,1.1-3.1,1.7-5.5,1.7h-0.3c-2.5,0-4.4-0.5-5.6-1.5
		c-1.2-1-1.8-2.3-1.8-3.9V9.1c0-1.5,0.5-2.8,1.6-3.8c1.1-1,2.8-1.5,5.2-1.5h0.4c2.7,0,4.6,0.6,5.9,1.8V4.1H57.3z M52.5,9.3
		c0-0.7-0.4-1.3-1.1-1.8c-0.7-0.5-1.8-0.7-3.2-0.7h-0.1c-1.4,0-2.4,0.2-3,0.7c-0.6,0.5-0.9,1.1-0.9,1.8v0.1c0,0.7,0.3,1.3,0.9,1.9
		c0.6,0.5,1.6,0.8,2.9,0.8h0.1c1.4,0,2.5-0.3,3.2-0.8C52.1,10.7,52.5,10.1,52.5,9.3L52.5,9.3z"/>
	<path d="M67.3,15.5c-5,1-7.8,0.2-8.3-2.3l0-0.1l5-1c0.2,1,1.3,1.3,3.3,0.9l0,0c0.8-0.2,1.5-0.4,1.9-0.5c0.4-0.2,0.7-0.4,0.8-0.5
		c0.1-0.2,0.1-0.3,0.1-0.5l0,0c-0.1-0.3-0.3-0.5-0.6-0.6c-0.4-0.1-1.1,0-2.1,0.2l-2.1,0.4c-1.2,0.2-2.3,0.3-3.2,0.3
		c-0.9,0-1.6-0.2-2.1-0.4c-0.5-0.2-0.9-0.5-1.1-0.8c-0.3-0.3-0.4-0.7-0.5-1.1l0-0.1c-0.1-0.4-0.1-0.7-0.1-1c0-0.3,0.2-0.6,0.4-1
		c0.2-0.4,0.6-0.7,1.1-1c0.5-0.3,1.2-0.6,2-0.9c0.9-0.3,1.9-0.6,3.2-0.8L65.9,4c4.9-1,7.5-0.3,8,1.9l0,0.1l-4.9,1
		c-0.1-0.1-0.1-0.2-0.2-0.3c-0.1-0.1-0.2-0.2-0.4-0.3c-0.2-0.1-0.5-0.1-0.9-0.1c-0.4,0-0.9,0.1-1.6,0.2l0,0C64.7,6.8,64,7,63.7,7.2
		c-0.4,0.2-0.5,0.4-0.4,0.7l0,0c0.1,0.3,0.3,0.4,0.6,0.5c0.4,0.1,1,0,2-0.1l2.1-0.4c1.8-0.3,3.1-0.4,4.2-0.4c1,0.1,1.7,0.3,2.2,0.7
		c0.4,0.4,0.7,1,0.8,1.7l0,0.1c0.1,0.5,0.1,1,0,1.5C75,12,74.7,12.5,74.2,13c-0.5,0.5-1.2,0.9-2.2,1.3c-1,0.4-2.3,0.8-3.8,1.1
		L67.3,15.5L67.3,15.5z"/>
	<path d="M78.3,11.9V7.4h-2.2V4.5h2.2v-3h4.6v3h2.2v2.8h-2.2v3.7c0,0.3,0.1,0.5,0.2,0.7c0.1,0.1,0.4,0.2,0.8,0.2h1.3v2.8h-4
		C79.2,14.8,78.3,13.9,78.3,11.9z"/>
	<path d="M94.9,15c-1.3,0-2.4-0.1-3.3-0.3c-1-0.2-1.7-0.5-2.3-0.9c-0.6-0.3-1.1-0.8-1.4-1.2s-0.6-1-0.8-1.4c-0.1-0.5-0.2-1-0.2-1.5
		V9.3c0-0.5,0.1-1,0.2-1.5c0.1-0.5,0.4-0.9,0.8-1.4s0.8-0.9,1.4-1.2c0.6-0.3,1.4-0.6,2.3-0.8c1-0.2,2.1-0.3,3.3-0.3h1.5
		c5.4,0,8.1,1.7,8.1,5.2v0.3c0,3.6-2.7,5.3-8.1,5.3H94.9z M98.7,11.4c0.6-0.5,0.9-1.2,0.9-1.9V9.5c0-0.7-0.3-1.4-0.9-1.9
		c-0.6-0.5-1.7-0.7-3.1-0.7h0c-1.5,0-2.5,0.2-3.1,0.7s-0.9,1.1-0.9,1.9v0.1c0,0.7,0.3,1.4,0.9,1.9c0.6,0.5,1.7,0.8,3.1,0.8
		C97.1,12.2,98.1,12,98.7,11.4z"/>
	<path d="M119.6,4v2.5c0,0-6.2,0-6.8,0.1c-0.5,0.1-1.3,0.5-1.7,1c-0.4,0.5-0.6,1.1-0.6,1.8v10.1h-4.4V4.3h4.4v1.9
		c0.2-0.3,0.4-0.6,0.7-0.8c0.3-0.3,0.7-0.6,1.4-0.8c0.7-0.3,1.4-0.4,2.2-0.4H119.6z"/>
	<path d="M137.8,12.1c-0.1,0.3-0.3,0.7-0.6,1c-0.3,0.4-0.8,0.7-1.3,1c-0.5,0.3-1.3,0.5-2.3,0.7c-1,0.2-2.1,0.3-3.4,0.3H129
		c-1.5,0-2.7-0.1-3.8-0.4c-1.1-0.3-1.9-0.7-2.5-1.2c-0.6-0.5-1-1.1-1.3-1.7c-0.3-0.6-0.4-1.3-0.4-2V9.3c0-0.7,0.1-1.4,0.4-1.9
		s0.7-1.1,1.2-1.6s1.4-0.9,2.4-1.2s2.3-0.4,3.8-0.4h1.3c5.2,0,7.8,1.9,7.8,5.6v0.7h-12.3c0.3,1.3,1.6,2,4,2h0c0.6,0,1.1,0,1.6-0.1
		s0.8-0.2,1.1-0.3c0.3-0.1,0.5-0.2,0.6-0.4c0.2-0.1,0.3-0.2,0.3-0.3c0.1-0.1,0.1-0.2,0.1-0.2h4.6v0
		C137.9,11.5,137.9,11.8,137.8,12.1z M129.5,6.5c-2.1,0-3.4,0.6-3.7,1.7h7.5C133,7.1,131.7,6.5,129.5,6.5L129.5,6.5z"/>
</g>
</svg>
